<?xml version="1.0" encoding="UTF-8"?>
<!DOCTYPE svg PUBLIC "-//W3C//DTD SVG 1.1//EN" "http://www.w3.org/Graphics/SVG/1.1/DTD/svg11.dtd">
<!-- Creator: CorelDRAW -->
<svg xmlns="http://www.w3.org/2000/svg" xml:space="preserve" width="1.29942in" height="0.477634in" version="1.1" style="shape-rendering:geometricPrecision; text-rendering:geometricPrecision; image-rendering:optimizeQuality; fill-rule:evenodd; clip-rule:evenodd"
viewBox="0 0 276.45 101.62"
 xmlns:xlink="http://www.w3.org/1999/xlink"
 xmlns:xodm="http://www.corel.com/coreldraw/odm/2003">
 <defs>
  <style type="text/css">
   <![CDATA[
    .fil0 {fill:#00C795}
    .fil1 {fill:#17181A;fill-rule:nonzero}
   ]]>
  </style>
 </defs>
 <g id="Layer_x0020_1">
  <metadata id="CorelCorpID_0Corel-Layer"/>
  <path class="fil0" d="M63.85 100.12c-13.8,3.39 -27.67,0.87 -38.94,-5.94 -11.27,-6.81 -19.95,-17.91 -23.38,-31.71 -3.42,-13.79 -0.94,-27.67 5.84,-38.96 6.78,-11.29 17.87,-20 31.65,-23.46l0.2 -0.05 0.05 0.2 3.6 14.5 0.05 0.2 -0.2 0.05c-4.73,1.19 -9,3.26 -12.69,6 -3.83,2.84 -7.03,6.39 -9.46,10.42 -2.43,4.04 -4.08,8.56 -4.8,13.3 -0.69,4.56 -0.51,9.33 0.67,14.09 1.18,4.76 3.25,9.06 5.99,12.77 2.85,3.85 6.42,7.08 10.46,9.51 4.02,2.42 8.52,4.07 13.23,4.79 4.54,0.69 9.29,0.53 14.03,-0.63l0.2 -0.05 0.05 0.2 3.6 14.51 0.05 0.2 -0.2 0.05zm-17.37 -71.33c11.66,-2.8 23.42,4.33 26.31,15.99 2.89,11.66 -4.16,23.46 -15.78,26.44l-10.53 -42.44zm-2.87 -11.14l0.35 1.43 0.05 0.2 -0.2 0.05c-4.14,1.05 -7.88,2.86 -11.1,5.26 -3.35,2.49 -6.15,5.6 -8.27,9.12 -2.13,3.54 -3.58,7.49 -4.2,11.64 -0.6,3.99 -0.44,8.17 0.59,12.34 1.03,4.17 2.85,7.93 5.25,11.18 2.49,3.37 5.62,6.19 9.16,8.33 3.52,2.12 7.45,3.56 11.57,4.19 3.97,0.61 8.13,0.46 12.27,-0.55l0.2 -0.05 0.05 0.2 0.35 1.43 0.05 0.2 -0.2 0.05c-4.39,1.07 -8.8,1.23 -13.01,0.58 -4.37,-0.67 -8.54,-2.19 -12.27,-4.44 -3.75,-2.26 -7.06,-5.25 -9.7,-8.82 -2.54,-3.45 -4.47,-7.44 -5.56,-11.85 -1.09,-4.41 -1.26,-8.84 -0.62,-13.07 0.66,-4.4 2.19,-8.59 4.45,-12.34 2.25,-3.73 5.21,-7.02 8.77,-9.66 3.42,-2.54 7.39,-4.46 11.77,-5.57l0.2 -0.05 0.05 0.2zm1.09 4.37l0.37 1.5 0.05 0.2 -0.2 0.05c-3.53,0.9 -6.73,2.45 -9.49,4.5 -2.86,2.12 -5.26,4.78 -7.07,7.79 -1.82,3.03 -3.06,6.41 -3.59,9.96 -0.52,3.42 -0.38,6.99 0.5,10.55 0.88,3.56 2.44,6.79 4.49,9.57 2.13,2.89 4.8,5.3 7.83,7.12 3.01,1.81 6.37,3.04 9.89,3.58 3.4,0.52 6.95,0.4 10.49,-0.46l0.2 -0.05 0.05 0.2 0.37 1.5 0.05 0.2 -0.2 0.05c-3.8,0.92 -7.61,1.06 -11.25,0.5 -3.78,-0.58 -7.39,-1.9 -10.61,-3.84 -3.24,-1.95 -6.11,-4.54 -8.4,-7.64 -2.2,-2.98 -3.87,-6.44 -4.81,-10.26 -0.95,-3.82 -1.09,-7.65 -0.54,-11.32 0.57,-3.81 1.9,-7.44 3.85,-10.68 1.94,-3.23 4.51,-6.08 7.58,-8.36 2.96,-2.2 6.39,-3.86 10.18,-4.82l0.2 -0.05 0.05 0.2zm1.1 4.45l0.51 2.04 0.05 0.2 -0.2 0.05c-5.85,1.49 -10.55,5.2 -13.43,10.01 -2.87,4.81 -3.92,10.7 -2.47,16.57 1.46,5.86 5.14,10.59 9.93,13.49 4.79,2.91 10.69,3.99 16.55,2.57l0.2 -0.05 0.05 0.2 0.51 2.03 0.05 0.2 -0.2 0.05c-3.2,0.78 -6.4,0.88 -9.47,0.41 -3.18,-0.49 -6.21,-1.6 -8.93,-3.23 -2.73,-1.65 -5.15,-3.83 -7.08,-6.44 -1.86,-2.51 -3.26,-5.42 -4.06,-8.64 -0.8,-3.22 -0.92,-6.45 -0.45,-9.53 0.48,-3.21 1.6,-6.26 3.24,-9 1.63,-2.71 3.8,-5.11 6.38,-7.03 2.49,-1.85 5.37,-3.25 8.56,-4.06l0.2 -0.05 0.05 0.2z"/>
  <path class="fil1" d="M143.23 71.47c1.67,-0.42 3.27,-1.05 4.72,-1.88l0.06 -0.04c1.78,-0.92 3.74,-1.07 5.51,-0.54 1.76,0.53 3.31,1.72 4.28,3.48l0.01 0.02c0.92,1.72 1.05,3.66 0.52,5.4 -0.53,1.75 -1.72,3.32 -3.43,4.29l-0.05 0.02c-2.63,1.39 -5.41,2.47 -8.3,3.2 -2.83,0.71 -5.76,1.09 -8.73,1.09 -9.85,0 -18.78,-4 -25.24,-10.47 -6.47,-6.47 -10.47,-15.39 -10.47,-25.24 0,-9.85 4.01,-18.78 10.47,-25.24 6.47,-6.47 15.39,-10.47 25.24,-10.47 2.97,0 5.89,0.38 8.73,1.09 2.89,0.73 5.67,1.8 8.3,3.19l0.05 0.02c1.71,0.98 2.9,2.54 3.43,4.29 0.53,1.75 0.4,3.68 -0.52,5.4l-0.01 0.02c-0.97,1.77 -2.53,2.96 -4.28,3.48 -1.76,0.53 -3.73,0.38 -5.51,-0.54l-0.06 -0.04c-1.45,-0.84 -3.05,-1.46 -4.72,-1.88 -1.75,-0.44 -3.57,-0.65 -5.4,-0.65 -5.87,0 -11.21,2.39 -15.07,6.26 -3.85,3.85 -6.25,9.17 -6.25,15.06 0,5.89 2.39,11.21 6.25,15.06 3.87,3.87 9.21,6.26 15.07,6.26 1.83,0 3.66,-0.21 5.4,-0.65zm35.67 12.95c-1.32,1.3 -3.14,2.1 -5.1,2.1 -1.97,0 -3.75,-0.8 -5.05,-2.09l-0.01 -0.01c-1.29,-1.29 -2.09,-3.08 -2.09,-5.05l0 -34.24c0,-1.97 0.8,-3.78 2.1,-5.1 1.29,-1.32 3.08,-2.14 5.05,-2.14 1.97,0 3.79,0.83 5.1,2.14 1.32,1.32 2.14,3.13 2.14,5.1l0 34.24c0,1.97 -0.83,3.75 -2.14,5.05zm0 -64.29c1.32,1.29 2.14,3.08 2.14,5.05 0,2.01 -0.82,3.81 -2.12,5.11l-0.01 0c-1.32,1.32 -3.14,2.13 -5.12,2.13 -1.98,0 -3.77,-0.81 -5.07,-2.13 -1.28,-1.31 -2.08,-3.11 -2.08,-5.12 0,-1.97 0.8,-3.75 2.09,-5.05l0.01 -0.01c1.29,-1.29 3.08,-2.09 5.05,-2.09 1.97,0 3.78,0.8 5.1,2.1zm48.04 30.05l0 0 -12.07 12.07 12.06 11.97c0.79,0.79 1.32,1.63 1.65,2.51 0.33,0.87 0.45,1.75 0.45,2.64 0,0.93 -0.19,1.86 -0.55,2.73 -0.35,0.85 -0.87,1.64 -1.55,2.32l0 0c-0.67,0.67 -1.46,1.19 -2.32,1.54l-0.01 0c-0.87,0.36 -1.8,0.55 -2.73,0.55 -0.93,0 -1.86,-0.19 -2.73,-0.55l-0.01 0c-0.85,-0.35 -1.64,-0.87 -2.31,-1.54l-0.01 0 -13.43 -13.43 0 8.38c0,1.97 -0.83,3.75 -2.14,5.05 -1.32,1.3 -3.14,2.1 -5.1,2.1 -1.97,0 -3.75,-0.8 -5.05,-2.09l-0.01 -0.01c-1.29,-1.29 -2.09,-3.08 -2.09,-5.05l0 -57.13c0,-1.97 0.8,-3.75 2.09,-5.05l0.01 -0.01c1.29,-1.29 3.08,-2.09 5.05,-2.09 1.97,0 3.78,0.8 5.1,2.1 1.32,1.29 2.14,3.08 2.14,5.05l0 31.17 13.43 -13.43c0.67,-0.67 1.45,-1.16 2.3,-1.49 0.88,-0.34 1.83,-0.51 2.76,-0.51 0.92,0 1.83,0.16 2.69,0.5l-0 0c0.82,0.32 1.6,0.8 2.31,1.46l0.09 0.09c0.66,0.72 1.17,1.53 1.52,2.38 0.35,0.88 0.54,1.8 0.54,2.72 0,0.93 -0.19,1.86 -0.55,2.73 -0.35,0.85 -0.87,1.64 -1.55,2.32zm37.29 -10.17c1.3,-1.32 3.09,-2.13 5.07,-2.13 1.98,0 3.77,0.81 5.07,2.13 1.28,1.31 2.08,3.11 2.08,5.12l0 22.21c0,0.42 -0.03,1.65 -0.33,3.35 -0.3,1.67 -0.88,3.77 -1.99,5.92l-0.01 0.02c-1.7,3.19 -4.1,5.66 -7.06,7.34 -2.94,1.67 -6.41,2.54 -10.28,2.54 -3.92,0 -7.42,-0.87 -10.36,-2.54 -2.96,-1.68 -5.33,-4.15 -6.98,-7.33l-0 0c-1.16,-2.16 -1.77,-4.27 -2.08,-5.94 -0.32,-1.69 -0.35,-2.94 -0.35,-3.36l0 -22.21c0,-2.01 0.79,-3.81 2.08,-5.12 1.3,-1.32 3.09,-2.13 5.07,-2.13 1.98,0 3.8,0.81 5.12,2.13l0.01 0c1.3,1.3 2.12,3.1 2.12,5.11l0 22.21c0,0.09 0.03,0.69 0.25,1.51 0.12,0.43 0.28,0.9 0.51,1.35 0.28,0.46 0.65,0.93 1.25,1.27 0.69,0.39 1.73,0.65 3.35,0.65 1.58,0 2.61,-0.27 3.3,-0.65 0.6,-0.33 0.94,-0.78 1.17,-1.21l0.03 -0.05c0.28,-0.47 0.47,-0.96 0.6,-1.4 0.24,-0.8 0.27,-1.38 0.27,-1.48l0 -22.21c0,-2.01 0.79,-3.81 2.08,-5.12z"/>
 </g>
</svg>
